 http://www.imdb.com/title/tt0089990/

------------------------------------------------------------------------------
FFMPEG report:
Input #0, matroska, from 'Non.stop.sempre.buio.in.sala.mkv':
  Duration: 01:16:12.16, start: 0.000000, bitrate: 9200 kb/s
    Stream #0.0: Video: mpeg2video, yuv420p, 720x480 [PAR 8:9 DAR 4:3], 9200 kb/s, PAR 1:1 DAR 3:2, 29.97 tbr, 1k tbn, 59.94 tbc
    Stream #0.1: Audio: ac3, 48000 Hz, stereo, s16
------------------------------------------------------------------------------

From http://by.ly/mm4x6r1

Crediti iniziali.
- "Paola amore mio, non andare via, ti prego…ho bisogno del tuo amore, perché vuoi lasciarmi?"
-"Devo farlo. È perché ti amo che debbo lasciarti. Devo dare un taglio netto a tutto ciò che mi riporta a te,Marco…oooh quanto ti amo anche io (parte il film con la Senatore che si aggira tra delle frasche), tutto qui mi parla di te, questo parco,questi alberi,questi prati,sono la stupenda cornice dei nostri incontri, del nostro amore che non ha confini né tempo, questo tempo che vorrei fermare, ma che purtroppo è inesorabile. Ti farei troppo male se continuassi,e sai che non lo voglio. (Marco entra in scena , con un golfino sulle spalle)Come le rondini tornano ogni anno al proprio nido, io ogni attimo vorrei tornare a te (Paola e Marco si imboscano nei pressi di un albero). Rivedo i nostri incontri, sento le tue mani affusolate sul mio corpo vellutato, è così che lo chiamavi vero?, i miei seni turgidi e vogliosi di carezze, delle tue carezze. Non hai che da alzare la tua mano, la tua mano che scende verso le mie cosce(da qui in poi ciò che dice Paola accade sullo schermo), quando arrivi alla fica è meraviglioso, il tuo dito comincerà a possedermi, le mie cosce si allargano man mano che le tue carezze salgono, il piccolo slip non oppone alcuna resistenza, le tue dita accarezzano l’entrata della vagina, e non fanno alcuna fatica a penetrarla, accarezza la fichina tua così com’è, contornata da (parola incomprensibile) peli rossastri. (qui la mdp stringe sulle dita di Marco che si muovono freneticamente tra le gambe della Senatore e si vede lei che perde l’equilibrio essendo in piedi, la scena non è stata ripetuta, che spettacolo!), ti offro la mia lingua Marco, mentre il mio ventre fremente segue i movimenti della tua mano, è tutto un gemito piacevole, baciami con ardore come tu sai fare,strofina la mia clitoride(e Marco obbedisce), masturbala,masturbami!Oh quanto godo, metti in pratica i miei insegnamenti di donna perversa,libidinosa,vogliosa….sono una puttana,la tua puttana, dai masturbami (aridaje), voglio il tuo cazzo Marco, fammelo toccare,lo desidero tanto, ah com’è duro….duro! Sei eccitato come un cavallo alla sua prima monta (ma per favore!). Che piacevole sensazione averlo fra le dita, poterlo stringere forte, stringerlo da farlo scoppiare di godimento.
